<svg width="1440" height="700" viewBox="0 0 1440 700" fill="none" xmlns="http://www.w3.org/2000/svg">
<g clip-path="url(#clip0_102_178)">
<path d="M91 389.955L115.6 364.982L140.2 389.955" stroke="black" stroke-width="2" stroke-miterlimit="10"/>
<path d="M91 389.955L115.6 364.982L140.2 389.955" stroke="black" stroke-opacity="0.2" stroke-width="2" stroke-miterlimit="10"/>
<path d="M91 364.981L115.6 340.313L140.2 364.981" stroke="black" stroke-width="2" stroke-miterlimit="10"/>
<path d="M91 364.981L115.6 340.313L140.2 364.981" stroke="black" stroke-opacity="0.2" stroke-width="2" stroke-miterlimit="10"/>
<path d="M91 340.314L115.6 315.341L140.2 340.314" stroke="black" stroke-width="2" stroke-miterlimit="10"/>
<path d="M91 340.314L115.6 315.341L140.2 340.314" stroke="black" stroke-opacity="0.2" stroke-width="2" stroke-miterlimit="10"/>
<path d="M91 315.341L115.6 290.673L140.2 315.341" stroke="black" stroke-width="2" stroke-miterlimit="10"/>
<path d="M91 315.341L115.6 290.673L140.2 315.341" stroke="black" stroke-opacity="0.2" stroke-width="2" stroke-miterlimit="10"/>
<path d="M91 290.674L115.6 265.701L140.2 290.674" stroke="black" stroke-width="2" stroke-miterlimit="10"/>
<path d="M91 290.674L115.6 265.701L140.2 290.674" stroke="black" stroke-opacity="0.2" stroke-width="2" stroke-miterlimit="10"/>
</g>
<path d="M1277.25 575.278L1282.59 580.761" stroke="#9D9D9D" stroke-width="1.1533" stroke-miterlimit="10" stroke-linecap="round" stroke-linejoin="round"/>
<path d="M1258.73 556.739L1268.64 566.791" stroke="#9D9D9D" stroke-width="1.1533" stroke-miterlimit="10" stroke-linecap="round" stroke-linejoin="round"/>
<path d="M1275.42 558.044L1312.85 595.383" stroke="#9D9D9D" stroke-width="1.1533" stroke-miterlimit="10" stroke-linecap="round" stroke-linejoin="round"/>
<path d="M1256.39 538.984L1264.08 546.556" stroke="#9D9D9D" stroke-width="1.1533" stroke-miterlimit="10" stroke-linecap="round" stroke-linejoin="round"/>
<path d="M1302.28 569.272L1335.14 602.172" stroke="black" stroke-width="1.1533" stroke-miterlimit="10" stroke-linecap="round" stroke-linejoin="round"/>
<path d="M1302.28 569.272L1335.14 602.172" stroke="black" stroke-opacity="0.2" stroke-width="1.1533" stroke-miterlimit="10" stroke-linecap="round" stroke-linejoin="round"/>
<path d="M1252.74 519.661L1287.81 554.65" stroke="black" stroke-width="1.1533" stroke-miterlimit="10" stroke-linecap="round" stroke-linejoin="round"/>
<path d="M1252.74 519.661L1287.81 554.65" stroke="black" stroke-opacity="0.2" stroke-width="1.1533" stroke-miterlimit="10" stroke-linecap="round" stroke-linejoin="round"/>
<path d="M1280.25 531.542L1338.14 589.508" stroke="#9D9D9D" stroke-width="1.1533" stroke-miterlimit="10" stroke-linecap="round" stroke-linejoin="round"/>
<path d="M1256.26 507.52L1268.51 519.792" stroke="#9D9D9D" stroke-width="1.1533" stroke-miterlimit="10" stroke-linecap="round" stroke-linejoin="round"/>
<path d="M1328.1 563.789L1341.92 577.759" stroke="#9D9D9D" stroke-width="1.1533" stroke-miterlimit="10" stroke-linecap="round" stroke-linejoin="round"/>
<path d="M1242.3 478.014L1313.37 549.167" stroke="#9D9D9D" stroke-width="1.1533" stroke-miterlimit="10" stroke-linecap="round" stroke-linejoin="round"/>
<path d="M1299.29 519.4L1368.78 588.986" stroke="black" stroke-width="1.1533" stroke-miterlimit="10" stroke-linecap="round" stroke-linejoin="round"/>
<path d="M1299.29 519.4L1368.78 588.986" stroke="black" stroke-opacity="0.2" stroke-width="1.1533" stroke-miterlimit="10" stroke-linecap="round" stroke-linejoin="round"/>
<path d="M1268.64 488.72L1284.81 504.909" stroke="black" stroke-width="1.1533" stroke-miterlimit="10" stroke-linecap="round" stroke-linejoin="round"/>
<path d="M1268.64 488.72L1284.81 504.909" stroke="black" stroke-opacity="0.2" stroke-width="1.1533" stroke-miterlimit="10" stroke-linecap="round" stroke-linejoin="round"/>
<path d="M1312.85 517.311L1357.7 562.222" stroke="#9D9D9D" stroke-width="1.1533" stroke-miterlimit="10" stroke-linecap="round" stroke-linejoin="round"/>
<path d="M1267.08 471.486L1300.2 504.647" stroke="#9D9D9D" stroke-width="1.1533" stroke-miterlimit="10" stroke-linecap="round" stroke-linejoin="round"/>
<path d="M1349.75 538.722L1373.22 562.222" stroke="black" stroke-width="1.1533" stroke-miterlimit="10" stroke-linecap="round" stroke-linejoin="round"/>
<path d="M1349.75 538.722L1373.22 562.222" stroke="black" stroke-opacity="0.2" stroke-width="1.1533" stroke-miterlimit="10" stroke-linecap="round" stroke-linejoin="round"/>
<path d="M1287.29 476.186L1332.8 521.619" stroke="black" stroke-width="1.1533" stroke-miterlimit="10" stroke-linecap="round" stroke-linejoin="round"/>
<path d="M1287.29 476.186L1332.8 521.619" stroke="black" stroke-opacity="0.2" stroke-width="1.1533" stroke-miterlimit="10" stroke-linecap="round" stroke-linejoin="round"/>
<path d="M1327.06 500.338L1358.74 532.063" stroke="#9D9D9D" stroke-width="1.1533" stroke-miterlimit="10" stroke-linecap="round" stroke-linejoin="round"/>
<path d="M1291.07 464.306L1314.67 487.936" stroke="#9D9D9D" stroke-width="1.1533" stroke-miterlimit="10" stroke-linecap="round" stroke-linejoin="round"/>
<path d="M1355.22 512.873L1367.48 525.275" stroke="black" stroke-width="1.1533" stroke-miterlimit="10" stroke-linecap="round" stroke-linejoin="round"/>
<path d="M1355.22 512.873L1367.48 525.275" stroke="black" stroke-opacity="0.2" stroke-width="1.1533" stroke-miterlimit="10" stroke-linecap="round" stroke-linejoin="round"/>
<path d="M1309.98 467.569L1341.14 498.903" stroke="black" stroke-width="1.1533" stroke-miterlimit="10" stroke-linecap="round" stroke-linejoin="round"/>
<path d="M1309.98 467.569L1341.14 498.903" stroke="black" stroke-opacity="0.2" stroke-width="1.1533" stroke-miterlimit="10" stroke-linecap="round" stroke-linejoin="round"/>
<path d="M1348.83 490.939L1356.4 498.512" stroke="#9D9D9D" stroke-width="1.1533" stroke-miterlimit="10" stroke-linecap="round" stroke-linejoin="round"/>
<path d="M1335.53 477.623L1340.75 482.845" stroke="#9D9D9D" stroke-width="1.1533" stroke-miterlimit="10" stroke-linecap="round" stroke-linejoin="round"/>
<defs>
<clipPath id="clip0_102_178">
<rect width="134" height="57" fill="white" transform="matrix(0 -1 1 0 88 393)"/>
</clipPath>
</defs>
</svg>
